<svg width="33" height="33" viewBox="0 0 33 33" fill="none" xmlns="http://www.w3.org/2000/svg">
<path d="M17.9604 0.60388C17.5731 0.217216 17.0477 0 16.5 0C15.9523 0 15.4269 0.217216 15.0396 0.60388L0.579859 15.0416C0.20358 15.4306 -0.00462838 15.9516 7.80879e-05 16.4924C0.00478456 17.0331 0.222029 17.5505 0.605022 17.9329C0.988014 18.3153 1.50611 18.5322 2.04772 18.5369C2.58934 18.5416 3.11113 18.3337 3.50072 17.958L4.10596 17.3537V30.9375C4.10596 31.4845 4.3236 32.0091 4.71098 32.3959C5.09837 32.7827 5.62378 33 6.17164 33H10.303C10.8508 33 11.3762 32.7827 11.7636 32.3959C12.151 32.0091 12.3687 31.4845 12.3687 30.9375V26.8124C12.3687 26.2654 12.5863 25.7408 12.9737 25.354C13.3611 24.9672 13.8865 24.7499 14.4343 24.7499H18.5657C19.1135 24.7499 19.6389 24.9672 20.0263 25.354C20.4137 25.7408 20.6313 26.2654 20.6313 26.8124V30.9375C20.6313 31.4845 20.849 32.0091 21.2364 32.3959C21.6238 32.7827 22.1492 33 22.697 33H26.8284C27.3762 33 27.9016 32.7827 28.289 32.3959C28.6764 32.0091 28.894 31.4845 28.894 30.9375V17.3537L29.4993 17.958C29.8889 18.3337 30.4107 18.5416 30.9523 18.5369C31.4939 18.5322 32.012 18.3153 32.395 17.9329C32.778 17.5505 32.9952 17.0331 32.9999 16.4924C33.0046 15.9516 32.7964 15.4306 32.4201 15.0416L17.9604 0.60388Z" fill="#2563EB"/>
</svg>
