<svg width="33" height="33" viewBox="0 0 33 33" fill="none" xmlns="http://www.w3.org/2000/svg">
<path fill-rule="evenodd" clip-rule="evenodd" d="M16.5 33C20.8761 33 25.0729 31.2616 28.1673 28.1673C31.2616 25.0729 33 20.8761 33 16.5C33 12.1239 31.2616 7.92709 28.1673 4.83274C25.0729 1.73839 20.8761 0 16.5 0C12.1239 0 7.92709 1.73839 4.83274 4.83274C1.73839 7.92709 0 12.1239 0 16.5C0 20.8761 1.73839 25.0729 4.83274 28.1673C7.92709 31.2616 12.1239 33 16.5 33ZM18.5625 10.3125C18.5625 9.76549 18.3452 9.24089 17.9584 8.85409C17.5716 8.4673 17.047 8.25 16.5 8.25C15.953 8.25 15.4284 8.4673 15.0416 8.85409C14.6548 9.24089 14.4375 9.76549 14.4375 10.3125V14.4375H10.3125C9.76549 14.4375 9.24089 14.6548 8.85409 15.0416C8.4673 15.4284 8.25 15.953 8.25 16.5C8.25 17.047 8.4673 17.5716 8.85409 17.9584C9.24089 18.3452 9.76549 18.5625 10.3125 18.5625H14.4375V22.6875C14.4375 23.2345 14.6548 23.7591 15.0416 24.1459C15.4284 24.5327 15.953 24.75 16.5 24.75C17.047 24.75 17.5716 24.5327 17.9584 24.1459C18.3452 23.7591 18.5625 23.2345 18.5625 22.6875V18.5625H22.6875C23.2345 18.5625 23.7591 18.3452 24.1459 17.9584C24.5327 17.5716 24.75 17.047 24.75 16.5C24.75 15.953 24.5327 15.4284 24.1459 15.0416C23.7591 14.6548 23.2345 14.4375 22.6875 14.4375H18.5625V10.3125Z" fill="#2563EB"/>
</svg>
