<svg width="113" height="28" viewBox="0 0 113 28" fill="none" xmlns="http://www.w3.org/2000/svg">
<path d="M16.0094 1.09795C16.106 1.14312 16.106 1.14312 16.2045 1.18921C18.7816 2.41605 20.8379 4.57119 21.8534 7.25501C22.8621 10.2258 22.7913 13.4792 21.4009 16.3186C21.3111 16.4958 21.2206 16.6728 21.1295 16.8493C21.087 16.9321 21.0446 17.0149 21.0008 17.1002C20.725 17.6175 20.4244 18.139 19.975 18.5256C19.5902 18.6038 19.5902 18.6038 19.2445 18.5256C18.8925 18.09 18.8468 17.6213 18.7749 17.0841C18.6167 15.9192 18.3004 14.9266 17.34 14.1752C17.0278 13.9127 16.9593 13.7948 16.8443 13.4121C16.8272 13.087 16.8272 13.087 16.8386 12.724C16.8411 12.5905 16.8437 12.4571 16.8463 12.3196C16.8531 12.0423 16.8617 11.7652 16.8708 11.488C16.898 9.88696 16.4333 8.57228 15.3833 7.35936C13.8746 6.1013 12.3484 5.66084 10.3995 5.77195C9.41675 5.86458 8.56343 6.27672 7.76523 6.83758C7.69891 6.88345 7.63259 6.92932 7.56427 6.97659C6.64094 7.687 5.98232 8.9336 5.78245 10.0726C5.65435 11.8072 5.8195 13.2091 6.82602 14.6644C6.87189 14.7308 6.91777 14.7973 6.96503 14.8657C7.6427 15.7446 8.86635 16.4347 9.95673 16.6471C10.2428 16.658 10.5267 16.6639 10.8128 16.6655C10.9836 16.6679 11.1544 16.6704 11.3252 16.673C11.5929 16.6767 11.8605 16.6797 12.1282 16.6811C12.3877 16.6828 12.647 16.687 12.9064 16.6916C13.0247 16.6913 13.0247 16.6913 13.1454 16.691C13.8765 16.7075 14.4222 16.9396 14.9418 17.4563C15.1563 17.7685 15.3128 18.0621 15.4641 18.4068C15.8315 19.2416 16.1931 19.8058 17.053 20.1953C18.0967 20.5997 19.0737 20.7203 20.1821 20.7314C21.4242 20.7506 22.3665 20.7861 23.3267 21.6453C23.519 21.8476 23.678 22.0528 23.8362 22.2824C23.8813 22.3407 23.9263 22.3989 23.9728 22.4589C24.4164 23.1451 24.3791 24.107 24.2536 24.8913C23.9687 25.6938 23.3975 26.2868 22.6589 26.6915C21.8313 27.0686 21.0309 27.123 20.1707 26.8154C18.9223 26.2412 18.1937 25.2137 17.3661 24.1608C16.5781 23.1692 15.7334 22.5376 14.4441 22.3868C13.5086 22.3405 12.5681 22.3792 11.6323 22.4011C8.3252 22.4721 5.50958 21.4284 3.10178 19.1256C2.09452 18.0832 1.36786 16.9198 0.773315 15.6036C0.731613 15.5137 0.689911 15.4238 0.646945 15.3313C0.12354 14.127 -0.00970268 12.8937 0.00200043 11.5977C0.00368119 11.3772 0.00200406 11.1569 1.31623e-05 10.9364C-0.00430947 8.25746 1.05628 5.6798 2.86045 3.70687C2.93955 3.6193 3.01865 3.53172 3.10015 3.44149C4.56689 1.89566 6.42512 0.850668 8.49573 0.367446C8.61398 0.336371 8.73222 0.305297 8.85405 0.27328C11.2612 -0.298854 13.7856 0.051596 16.0094 1.09795Z" fill="#2563EB"/>
<path d="M79.1976 5.33745C79.3145 5.33624 79.4314 5.33503 79.5519 5.33379C80.8363 5.33823 82.2916 5.56764 83.3524 6.34841C83.6112 6.54994 83.6112 6.54994 83.8684 6.50536C84.3429 6.3641 84.7586 6.11189 85.1921 5.87636C86.217 5.3876 87.2689 5.32693 88.3876 5.33745C88.5167 5.33624 88.6457 5.33503 88.7787 5.33379C90.5217 5.33932 92.0607 5.92404 93.3511 7.105C94.3178 8.11223 94.8468 9.47351 94.8445 10.8545C94.8455 10.9486 94.8466 11.0428 94.8477 11.1398C94.8506 11.4481 94.8513 11.7564 94.8516 12.0648C94.8526 12.2809 94.8537 12.497 94.8548 12.7131C94.8566 13.1649 94.8572 13.6167 94.857 14.0686C94.857 14.6456 94.8613 15.2225 94.8667 15.7994C94.8702 16.2454 94.8708 16.6913 94.8706 17.1373C94.871 17.3499 94.8724 17.5625 94.8748 17.7752C94.8973 19.9491 94.8973 19.9491 94.1729 20.7171C93.5467 21.2905 92.9126 21.5062 92.0768 21.4859C91.456 21.4077 90.9466 21.1748 90.5322 20.7004C90.0692 20.0289 89.8629 19.4684 89.8676 18.6491C89.867 18.5284 89.867 18.5284 89.8664 18.4052C89.8657 18.231 89.8655 18.0568 89.8656 17.8826C89.8657 17.6067 89.8644 17.3308 89.8626 17.0548C89.8578 16.2704 89.8552 15.4861 89.8545 14.7017C89.854 14.2213 89.8514 13.741 89.8477 13.2607C89.8467 13.078 89.8464 12.8953 89.847 12.7126C89.8477 12.4568 89.8459 12.2012 89.8435 11.9454C89.8444 11.8704 89.8452 11.7954 89.8461 11.7181C89.8375 11.1929 89.6985 10.8968 89.3725 10.4901C88.8972 10.102 88.3461 9.99843 87.7439 10.0262C87.3306 10.1031 87.0406 10.2808 86.7635 10.5944C86.4093 11.1272 86.2855 11.5162 86.2958 12.161C86.2951 12.2813 86.2951 12.2813 86.2945 12.404C86.2939 12.5769 86.2942 12.7499 86.2954 12.9228C86.2972 13.1971 86.2964 13.4713 86.295 13.7456C86.2919 14.4266 86.2932 15.1076 86.2945 15.7887C86.2953 16.3649 86.2945 16.9411 86.2914 17.5174C86.2907 17.7865 86.2924 18.0556 86.2942 18.3248C86.2936 18.4912 86.2929 18.6576 86.2921 18.8239C86.2939 18.9348 86.2939 18.9348 86.2957 19.0479C86.2872 19.7499 86.0251 20.2629 85.5895 20.7953C84.9267 21.3376 84.3829 21.5215 83.5175 21.4867C82.7484 21.3871 82.3083 21.0074 81.8111 20.4346C81.4128 19.8428 81.2909 19.3341 81.3001 18.6271C81.2999 18.5467 81.2997 18.4663 81.2994 18.3836C81.2991 18.2103 81.2995 18.037 81.3005 17.8638C81.3019 17.5891 81.3012 17.3144 81.3 17.0397C81.2968 16.2592 81.2973 15.4786 81.2994 14.6981C81.3005 14.2195 81.2991 13.741 81.2962 13.2624C81.2957 13.0807 81.2961 12.899 81.2975 12.7173C81.2995 12.4627 81.2983 12.2084 81.2965 11.9539C81.2979 11.8796 81.2992 11.8054 81.3007 11.7288C81.2913 11.1511 81.0943 10.7971 80.7108 10.3857C80.2086 10.0319 79.7391 10.011 79.1455 10.0727C78.6213 10.2037 78.2818 10.5336 77.9842 10.9795C77.8551 11.3214 77.8636 11.6527 77.8649 12.0132C77.8641 12.1321 77.8641 12.1321 77.8632 12.2535C77.8622 12.4254 77.8616 12.5973 77.8614 12.7692C77.861 13.0417 77.8592 13.3141 77.8571 13.5866C77.8513 14.3611 77.8481 15.1357 77.8456 15.9103C77.8439 16.3844 77.8407 16.8586 77.8367 17.3327C77.8355 17.513 77.8349 17.6932 77.8349 17.8735C77.8349 18.1263 77.8329 18.3789 77.8306 18.6317C77.8311 18.7055 77.8316 18.7793 77.8321 18.8553C77.8208 19.6353 77.5041 20.369 76.954 20.9258C76.2426 21.4449 75.5229 21.5742 74.6581 21.4476C74.0143 21.2639 73.5545 20.8595 73.1971 20.2996C72.9054 19.7244 72.8383 19.2762 72.8419 18.636C72.8412 18.5454 72.8405 18.4549 72.8397 18.3616C72.8378 18.0638 72.8382 17.766 72.8388 17.4681C72.8383 17.2595 72.8378 17.0509 72.8371 16.8423C72.8362 16.4053 72.8365 15.9682 72.8375 15.5312C72.8387 14.9744 72.8366 14.4176 72.8335 13.8608C72.8316 13.4298 72.8317 12.9988 72.8323 12.5678C72.8323 12.3627 72.8316 12.1576 72.8303 11.9525C72.8199 10.0442 73.1079 8.43135 74.4559 6.96803C75.8164 5.69763 77.371 5.31854 79.1976 5.33745Z" fill="#2563EB"/>
<path d="M107.426 5.68966C107.535 5.72746 107.644 5.76526 107.757 5.80421C109.939 6.63689 111.444 8.30261 112.429 10.3727C113.077 11.8957 113.159 13.6945 112.748 15.2905C112.732 15.3763 112.715 15.4622 112.698 15.5506C112.365 17.066 111.436 18.2968 110.348 19.3604C110.238 19.4758 110.238 19.4758 110.125 19.5936C108.615 21.0775 106.419 21.5988 104.375 21.5896C102.233 21.5499 100.357 20.6284 98.8477 19.1325C97.2824 17.4567 96.4706 15.3045 96.5433 13.0199C96.6615 10.85 97.6158 8.8558 99.182 7.35937C101.442 5.3754 104.576 4.6869 107.426 5.68966Z" fill="#2563EB"/>
<path d="M28.141 5.59182C28.8782 6.00271 29.312 6.55672 29.5759 7.35937C29.6032 7.64043 29.6165 7.89624 29.6127 8.17626C29.6129 8.25442 29.6132 8.33258 29.6134 8.41311C29.6137 8.58159 29.6133 8.75007 29.6123 8.91855C29.6109 9.18583 29.6116 9.45303 29.6128 9.72031C29.6161 10.4798 29.6156 11.2392 29.6135 11.9986C29.6123 12.4644 29.6137 12.93 29.6166 13.3957C29.6172 13.5724 29.6167 13.7491 29.6153 13.9258C29.5895 15.223 29.5895 15.223 30.202 16.3341C30.5414 16.6535 30.8407 16.6704 31.2912 16.6863C31.7676 16.6715 32.1002 16.6153 32.4979 16.3341C33.0147 15.7741 33.155 15.3588 33.149 14.6056C33.1493 14.4871 33.1493 14.4871 33.1496 14.3663C33.15 14.1951 33.1499 14.0239 33.1494 13.8526C33.1489 13.581 33.1498 13.3094 33.1512 13.0377C33.1551 12.2654 33.1571 11.4932 33.1559 10.7209C33.1553 10.2481 33.1572 9.77534 33.1607 9.30255C33.1615 9.12303 33.1614 8.94351 33.1602 8.76399C33.1493 6.93531 33.1493 6.93531 33.7501 6.21144C33.9764 5.98642 33.9764 5.98642 34.1871 5.84619C34.2927 5.77355 34.2927 5.77355 34.4003 5.69944C35.01 5.32262 35.8166 5.41665 36.5074 5.51804C37.137 5.70564 37.564 6.20277 37.9244 6.73323C38.1458 7.26158 38.1629 7.72649 38.1601 8.28895C38.1607 8.42601 38.1607 8.42601 38.1613 8.56585C38.1622 8.86675 38.1616 9.16762 38.1609 9.46852C38.161 9.67854 38.1612 9.88856 38.1615 10.0986C38.1618 10.5384 38.1613 10.9782 38.1603 11.4181C38.1592 11.9805 38.1598 12.5428 38.1611 13.1052C38.1618 13.5388 38.1616 13.9725 38.1611 14.4062C38.1609 14.6135 38.1611 14.8207 38.1616 15.028C38.1621 15.3184 38.1613 15.6088 38.1601 15.8993C38.1606 15.9841 38.161 16.0689 38.1614 16.1563C38.1515 17.5073 37.6588 18.6649 36.7765 19.6735C36.6982 19.7701 36.6982 19.7701 36.6183 19.8688C35.8287 20.764 34.5601 21.2726 33.3842 21.3634C33.1028 21.3723 32.8222 21.3749 32.5407 21.3746C32.4379 21.375 32.3352 21.3755 32.2293 21.3759C32.0133 21.3765 31.7973 21.3766 31.5813 21.3761C31.2534 21.3758 30.9255 21.3783 30.5976 21.3809C30.3865 21.3812 30.1754 21.3812 29.9643 21.3811C29.8677 21.3821 29.771 21.383 29.6714 21.384C28.2889 21.3744 27.1297 20.8162 26.119 19.8851C25.1077 18.7916 24.5543 17.3322 24.5466 15.8585C24.5457 15.7685 24.5449 15.6785 24.544 15.5858C24.5414 15.2882 24.5397 14.9905 24.5382 14.6929C24.5376 14.591 24.5371 14.489 24.5365 14.384C24.5337 13.8442 24.5317 13.3044 24.5302 12.7646C24.5288 12.319 24.5259 11.8735 24.5216 11.4279C24.5165 10.8888 24.5139 10.3498 24.5132 9.81065C24.5125 9.60587 24.5109 9.4011 24.5084 9.19633C24.4827 6.96931 24.4827 6.96931 25.2702 6.11978C26.0906 5.33679 27.107 5.12071 28.141 5.59182Z" fill="#2563EB"/>
<path d="M59.8686 5.54314C59.9629 5.54242 60.0572 5.54171 60.1543 5.54097C60.4643 5.53907 60.7743 5.53946 61.0843 5.54006C61.3009 5.53958 61.5175 5.53903 61.7342 5.5384C62.1877 5.53747 62.6412 5.53772 63.0947 5.53876C63.6743 5.53996 64.2538 5.53785 64.8334 5.5348C65.2806 5.53288 65.7279 5.53292 66.1752 5.53351C66.3888 5.53353 66.6024 5.5329 66.816 5.5316C67.1154 5.53004 67.4147 5.53117 67.7142 5.53295C67.8014 5.53194 67.8886 5.53093 67.9784 5.52989C68.7041 5.53889 69.3318 5.73648 69.8931 6.20778C69.9481 6.27571 70.0031 6.34365 70.0598 6.41364C70.1167 6.4813 70.1736 6.54897 70.2322 6.61869C70.6325 7.21409 70.6913 7.80765 70.5881 8.5073C70.2569 9.36561 69.5483 10.0611 68.952 10.7468C68.7568 10.9742 68.5698 11.2076 68.3836 11.4423C67.5925 12.4384 66.7763 13.4103 65.9471 14.3745C65.6889 14.6749 65.4314 14.9759 65.1746 15.2775C65.0866 15.3805 64.9986 15.4836 64.908 15.5897C64.6999 15.8385 64.5039 16.0946 64.3099 16.3545C64.2542 16.429 64.1985 16.5036 64.1411 16.5804C64.0991 16.6368 64.057 16.6933 64.0136 16.7515C64.0826 16.7506 64.1516 16.7497 64.2226 16.7487C64.9421 16.7394 65.6616 16.7332 66.3811 16.7286C66.6495 16.7265 66.9178 16.7236 67.1861 16.72C67.5724 16.7149 67.9586 16.7126 68.3448 16.7107C68.4643 16.7086 68.5838 16.7064 68.7069 16.7042C69.5269 16.704 69.9957 16.8107 70.6068 17.3813C70.6652 17.4511 70.7236 17.521 70.7838 17.5929C70.8438 17.663 70.9038 17.7331 70.9656 17.8053C71.32 18.2928 71.2694 18.8895 71.2142 19.4648C71.0317 20.1092 70.6213 20.5635 70.0663 20.9258C69.5588 21.1954 69.0545 21.1668 68.4943 21.1681C68.3889 21.1692 68.2834 21.1702 68.1748 21.1713C67.8264 21.1743 67.478 21.1757 67.1296 21.1769C66.887 21.1781 66.6443 21.1793 66.4016 21.1805C65.8928 21.1827 65.384 21.1839 64.8752 21.1846C64.2245 21.1858 63.5739 21.1908 62.9232 21.1967C62.4218 21.2006 61.9205 21.2017 61.4191 21.202C61.1793 21.2027 60.9395 21.2043 60.6997 21.2071C60.3635 21.2107 60.0275 21.2102 59.6912 21.2089C59.593 21.2108 59.4947 21.2127 59.3935 21.2147C58.6627 21.2056 58.2044 20.9781 57.6478 20.5084C57.1165 19.8939 57.0366 19.1448 57.0706 18.3564C57.2337 17.3192 58.0898 16.5354 58.7572 15.7692C59.1278 15.3397 59.4813 14.8956 59.8393 14.4557C59.998 14.2621 60.1567 14.0686 60.3155 13.8752C60.6056 13.521 60.8924 13.1646 61.1764 12.8055C61.5806 12.298 62.0018 11.8061 62.4262 11.3154C62.477 11.2566 62.5279 11.1977 62.5803 11.137C62.6253 11.0852 62.6703 11.0334 62.7166 10.9799C62.91 10.7507 63.0964 10.5161 63.2831 10.2814C63.1579 10.2798 63.0326 10.2783 62.9036 10.2768C62.436 10.2707 61.9685 10.2626 61.5009 10.254C61.2991 10.2505 61.0973 10.2476 60.8955 10.2452C60.6043 10.2417 60.3131 10.2362 60.0219 10.2304C59.9327 10.2297 59.8434 10.2291 59.7514 10.2284C59.0784 10.2122 58.4661 10.1155 57.9356 9.66542C57.8794 9.59533 57.8232 9.52525 57.7652 9.45304C57.6785 9.34831 57.6785 9.34831 57.5899 9.24147C57.1062 8.56035 57.1663 7.88362 57.2891 7.07892C57.5811 6.406 58.0017 5.93373 58.6858 5.65121C59.0758 5.5313 59.4636 5.54097 59.8686 5.54314Z" fill="#2563EB"/>
<path fill-rule="evenodd" clip-rule="evenodd" d="M51.2789 5.88217L51.0734 5.79402C49.3423 5.04857 47.2023 4.96278 45.4091 5.55027C43.3299 6.31635 41.5658 7.82849 40.5859 9.82358L40.429 10.177C39.7506 11.6597 39.753 13.2701 39.9072 14.8731C40.2301 16.8447 41.3363 18.6146 42.8814 19.8626C44.8548 21.3082 47.0489 21.8146 49.4677 21.5034C51.6119 21.0609 53.464 19.8347 54.765 18.0886C54.8241 17.9951 54.8888 17.8993 54.9542 17.8024C55.3335 17.2402 55.7389 16.6394 55.2477 16.2297C55.0775 16.0878 54.9346 16.021 54.7305 15.9959L54.4967 15.9973L54.2309 15.9974L53.9452 16.0006C53.6429 16.0015 53.3407 16.0027 53.0384 16.0053C52.8279 16.0071 52.407 16.0095 52.407 16.0095C52.407 16.0095 50.656 16.021 50.5516 16.021C50.4918 16.021 50.4643 16.0786 50.4332 16.144C50.4101 16.1926 50.3849 16.2454 50.3429 16.2819C50.3092 16.3112 50.2773 16.3286 50.246 16.3456C50.2128 16.3637 50.1804 16.3814 50.1472 16.4123C49.2177 17.0816 48.1514 17.1799 47.0491 17.0059C46.2969 16.6913 45.7312 16.3156 45.3036 15.6047L45.1964 15.4197C45.0672 15.2033 44.9389 14.9865 44.812 14.7687C46.0153 14.7731 47.2186 14.7767 48.4219 14.7789L48.5653 14.7792C49.131 14.7801 49.6966 14.7811 50.2623 14.783C50.8633 14.7854 51.4642 14.7874 52.0652 14.7882L52.7508 14.7891C53.08 14.7907 53.4092 14.7924 53.7384 14.7925L54.0409 14.7924C54.0891 14.7928 54.1368 14.7934 54.1841 14.794C54.67 14.8003 55.1162 14.806 55.5607 14.56C55.9987 14.1513 56.1111 13.8526 56.134 13.2501C56.1399 11.3403 55.4303 9.38201 54.1014 7.98429L53.891 7.7768C53.1054 6.97094 52.3118 6.34322 51.2789 5.88217ZM51.0734 11.3249C50.7482 10.717 50.2679 10.2719 49.7167 9.86393C48.8966 9.38337 47.9181 9.27 47.0035 9.55086C45.9401 9.94626 45.415 10.6405 44.9163 11.638H51.0734V11.3249Z" fill="#2563EB"/>
</svg>
